# xmcd
#
# Track frame offsets:
#	150
#	7653
#	22644
#	33672
#	53087
#	85742
#	99552
#	126816
#	171048
#	204209
#	218814
#	254475
#
# Disc length: 3660 seconds
#
# Revision: 1
# Processed by: cddbd v1.5.2PL0 Copyright (c) Steve Scherf et al.
# Submitted via: audiograbber 1.83.01
#
DISCID=8b0e4a0c
DTITLE=Grateful Dead - 80-04-01 Capitol Theatre, Passaic NJ
DYEAR=1900
DGENRE=
TTITLE0=Tuning
TTITLE1=Promised Land
TTITLE2=Tuning
TTITLE3=Promised Land
TTITLE4=Candyman
TTITLE5=Me and My Uncle
TTITLE6=Big River
TTITLE7=Friend Of The Devil
TTITLE8=All Over Now
TTITLE9=Don't Ease Me In
TTITLE10=Looks Like Rain
TTITLE11=Deal
EXTD=
EXTT0=
EXTT1=
EXTT2=
EXTT3=
EXTT4=
EXTT5=
EXTT6=
EXTT7=
EXTT8=
EXTT9=
EXTT10=
EXTT11=
PLAYORDER=
